<!--?xml version="1.0" standalone="no"?-->
              <svg id="sw-js-blob-svg" viewBox="0 0 100 100" xmlns="http://www.w3.org/2000/svg" version="1.1">
                    <defs> 
                        <linearGradient id="sw-gradient" x1="0" x2="1" y1="1" y2="0">
                            <stop id="stop1" stop-color="rgba(61.756, 55, 248, 1)" offset="0%"></stop>
                            <stop id="stop2" stop-color="rgba(194.478, 31, 251, 1)" offset="100%"></stop>
                        </linearGradient>
                    </defs>
                <path fill="url(#sw-gradient)" d="M20.8,-24.8C26.7,-19.8,31.1,-13,33.7,-4.9C36.4,3.2,37.2,12.6,33.6,20C30,27.3,21.9,32.6,12.7,36.8C3.5,40.9,-6.8,43.9,-15.6,41.3C-24.5,38.8,-32,30.8,-35.7,21.9C-39.4,12.9,-39.2,3,-36.3,-5.2C-33.4,-13.3,-27.7,-19.8,-21.2,-24.7C-14.7,-29.6,-7.3,-32.9,0.1,-33C7.4,-33,14.9,-29.8,20.8,-24.8Z" width="100%" height="100%" transform="translate(50 50)" stroke-width="0" style="transition: all 0.3s ease 0s;"></path>
              </svg>